<svg width="1600" height="1100" viewBox="0 0 1600 1100" fill="none" xmlns="http://www.w3.org/2000/svg">
  <rect width="1600" height="1100" fill="#000000"/>

  <!-- Grid -->
  <g opacity="0.04" stroke="#00d4aa" stroke-width="0.5">
    <line x1="0" y1="200" x2="1600" y2="200"/><line x1="0" y1="400" x2="1600" y2="400"/>
    <line x1="0" y1="600" x2="1600" y2="600"/><line x1="0" y1="800" x2="1600" y2="800"/>
    <line x1="320" y1="0" x2="320" y2="1100"/><line x1="640" y1="0" x2="640" y2="1100"/>
    <line x1="960" y1="0" x2="960" y2="1100"/><line x1="1280" y1="0" x2="1280" y2="1100"/>
  </g>

  <!-- Title -->
  <text x="80" y="80" fill="#e8e8f0" font-family="system-ui, sans-serif" font-size="40" font-weight="700" letter-spacing="-1">System Architecture</text>
  <text x="80" y="116" fill="#8888a8" font-family="system-ui, sans-serif" font-size="18">How AI Market Cap connects data, intelligence, commerce, and public governance</text>

  <!-- LAYER 1: PRESENTATION -->
  <text x="80" y="188" fill="#00d4aa" font-family="monospace" font-size="12" font-weight="600" letter-spacing="3" opacity="0.7">PRESENTATION LAYER</text>

  <!-- Card: Public Web App -->
  <rect x="80" y="210" width="440" height="160" rx="16" fill="#0a0a0a" stroke="#ffffff" stroke-opacity="0.08" stroke-width="1"/>
  <rect x="80" y="210" width="440" height="4" rx="2" fill="#00d4aa"/>
  <circle cx="112" cy="248" r="14" fill="#00d4aa" fill-opacity="0.15" stroke="#00d4aa" stroke-width="1.5"/>
  <text x="108" y="253" fill="#00d4aa" font-family="system-ui, sans-serif" font-size="14" font-weight="700" text-anchor="middle">W</text>
  <text x="140" y="254" fill="#e8e8f0" font-family="system-ui, sans-serif" font-size="20" font-weight="700">Public Web App</text>
  <text fill="#8888a8" font-family="system-ui, sans-serif" font-size="14">
    <tspan x="112" y="290">Model pages, leaderboards, provider views,</tspan>
    <tspan x="112" y="312">search, compare, and discovery workflows</tspan>
  </text>
  <g transform="translate(112, 336)" font-family="monospace" font-size="11">
    <rect width="64" height="22" rx="4" fill="#00d4aa" fill-opacity="0.1"/><text x="8" y="15" fill="#00d4aa">Next.js</text>
    <rect x="72" width="72" height="22" rx="4" fill="#00d4aa" fill-opacity="0.1"/><text x="80" y="15" fill="#00d4aa">React 19</text>
    <rect x="152" width="72" height="22" rx="4" fill="#00d4aa" fill-opacity="0.1"/><text x="160" y="15" fill="#00d4aa">Three.js</text>
  </g>

  <!-- Card: Marketplace -->
  <rect x="580" y="210" width="440" height="160" rx="16" fill="#0a0a0a" stroke="#ffffff" stroke-opacity="0.08" stroke-width="1"/>
  <rect x="580" y="210" width="440" height="4" rx="2" fill="#f59e0b"/>
  <circle cx="612" cy="248" r="14" fill="#f59e0b" fill-opacity="0.15" stroke="#f59e0b" stroke-width="1.5"/>
  <text x="608" y="253" fill="#f59e0b" font-family="system-ui, sans-serif" font-size="14" font-weight="700" text-anchor="middle">M</text>
  <text x="640" y="254" fill="#e8e8f0" font-family="system-ui, sans-serif" font-size="20" font-weight="700">Marketplace + Commerce</text>
  <text fill="#8888a8" font-family="system-ui, sans-serif" font-size="14">
    <tspan x="612" y="290">Listings, auctions, manifests, delivery,</tspan>
    <tspan x="612" y="312">settlement, and trust-rail commerce</tspan>
  </text>
  <g transform="translate(612, 336)" font-family="monospace" font-size="11">
    <rect width="56" height="22" rx="4" fill="#f59e0b" fill-opacity="0.1"/><text x="8" y="15" fill="#f59e0b">Stripe</text>
    <rect x="64" width="64" height="22" rx="4" fill="#f59e0b" fill-opacity="0.1"/><text x="72" y="15" fill="#f59e0b">Solana</text>
    <rect x="136" width="48" height="22" rx="4" fill="#f59e0b" fill-opacity="0.1"/><text x="144" y="15" fill="#f59e0b">EVM</text>
  </g>

  <!-- Card: Admin -->
  <rect x="1080" y="210" width="440" height="160" rx="16" fill="#0a0a0a" stroke="#ffffff" stroke-opacity="0.08" stroke-width="1"/>
  <rect x="1080" y="210" width="440" height="4" rx="2" fill="#ea3943"/>
  <circle cx="1112" cy="248" r="14" fill="#ea3943" fill-opacity="0.15" stroke="#ea3943" stroke-width="1.5"/>
  <text x="1108" y="253" fill="#ea3943" font-family="system-ui, sans-serif" font-size="14" font-weight="700" text-anchor="middle">A</text>
  <text x="1140" y="254" fill="#e8e8f0" font-family="system-ui, sans-serif" font-size="20" font-weight="700">Admin + Operations</text>
  <text fill="#8888a8" font-family="system-ui, sans-serif" font-size="14">
    <tspan x="1112" y="290">Pipeline health, sync controls, moderation,</tspan>
    <tspan x="1112" y="312">operator dashboards, and system status</tspan>
  </text>
  <g transform="translate(1112, 336)" font-family="monospace" font-size="11">
    <rect width="48" height="22" rx="4" fill="#ea3943" fill-opacity="0.1"/><text x="8" y="15" fill="#ea3943">RLS</text>
    <rect x="56" width="48" height="22" rx="4" fill="#ea3943" fill-opacity="0.1"/><text x="64" y="15" fill="#ea3943">Cron</text>
    <rect x="112" width="64" height="22" rx="4" fill="#ea3943" fill-opacity="0.1"/><text x="120" y="15" fill="#ea3943">Sentry</text>
  </g>

  <!-- Connectors 1→2 -->
  <g stroke="#ffffff" stroke-opacity="0.08" stroke-width="1.5" stroke-dasharray="6 4">
    <line x1="300" y1="370" x2="300" y2="430"/><line x1="800" y1="370" x2="800" y2="430"/><line x1="1300" y1="370" x2="1300" y2="430"/>
  </g>
  <g fill="#00d4aa" opacity="0.5"><polygon points="296,428 300,438 304,428"/><polygon points="796,428 800,438 804,428"/><polygon points="1296,428 1300,438 1304,428"/></g>

  <!-- LAYER 2: INTELLIGENCE -->
  <text x="80" y="466" fill="#00d4aa" font-family="monospace" font-size="12" font-weight="600" letter-spacing="3" opacity="0.7">INTELLIGENCE LAYER</text>

  <rect x="80" y="488" width="340" height="140" rx="16" fill="#0a0a0a" stroke="#ffffff" stroke-opacity="0.08" stroke-width="1"/>
  <rect x="80" y="488" width="340" height="3" rx="1.5" fill="#00d4aa"/>
  <text x="112" y="526" fill="#e8e8f0" font-family="system-ui, sans-serif" font-size="18" font-weight="700">Scoring Engine</text>
  <text fill="#8888a8" font-family="system-ui, sans-serif" font-size="13"><tspan x="112" y="554">Benchmark normalization, composite</tspan><tspan x="112" y="574">rankings, trust scores, freshness cues</tspan></text>
  <text x="112" y="608" fill="#00d4aa" font-family="monospace" font-size="11" opacity="0.5">src/lib/scoring + compute-scores</text>

  <rect x="460" y="488" width="340" height="140" rx="16" fill="#0a0a0a" stroke="#ffffff" stroke-opacity="0.08" stroke-width="1"/>
  <rect x="460" y="488" width="340" height="3" rx="1.5" fill="#22d3ee"/>
  <text x="492" y="526" fill="#e8e8f0" font-family="system-ui, sans-serif" font-size="18" font-weight="700">Pricing Intelligence</text>
  <text fill="#8888a8" font-family="system-ui, sans-serif" font-size="13"><tspan x="492" y="554">Access-offer mapping, provider</tspan><tspan x="492" y="574">comparison, cost analysis</tspan></text>
  <text x="492" y="608" fill="#22d3ee" font-family="monospace" font-size="11" opacity="0.5">src/lib/models + providers</text>

  <rect x="840" y="488" width="340" height="140" rx="16" fill="#0a0a0a" stroke="#ffffff" stroke-opacity="0.08" stroke-width="1"/>
  <rect x="840" y="488" width="340" height="3" rx="1.5" fill="#ec4899"/>
  <text x="872" y="526" fill="#e8e8f0" font-family="system-ui, sans-serif" font-size="18" font-weight="700">News + Launch Tracker</text>
  <text fill="#8888a8" font-family="system-ui, sans-serif" font-size="13"><tspan x="872" y="554">RSS ingestion, social feeds, model</tspan><tspan x="872" y="574">linking, launch activity timeline</tspan></text>
  <text x="872" y="608" fill="#ec4899" font-family="monospace" font-size="11" opacity="0.5">src/lib/news + data-sources</text>

  <rect x="1220" y="488" width="300" height="140" rx="16" fill="#0a0a0a" stroke="#ffffff" stroke-opacity="0.08" stroke-width="1"/>
  <rect x="1220" y="488" width="300" height="3" rx="1.5" fill="#6366f1"/>
  <text x="1252" y="526" fill="#e8e8f0" font-family="system-ui, sans-serif" font-size="18" font-weight="700">Agent Systems</text>
  <text fill="#8888a8" font-family="system-ui, sans-serif" font-size="13"><tspan x="1252" y="554">LLM-backed analysis, quality</tspan><tspan x="1252" y="574">monitoring, autonomous ops</tspan></text>
  <text x="1252" y="608" fill="#6366f1" font-family="monospace" font-size="11" opacity="0.5">src/lib/agents + mcp</text>

  <!-- Connectors 2→3 -->
  <g stroke="#ffffff" stroke-opacity="0.08" stroke-width="1.5" stroke-dasharray="6 4">
    <line x1="250" y1="628" x2="250" y2="690"/><line x1="630" y1="628" x2="630" y2="690"/><line x1="1010" y1="628" x2="1010" y2="690"/><line x1="1370" y1="628" x2="1370" y2="690"/>
  </g>
  <g fill="#00d4aa" opacity="0.5"><polygon points="246,688 250,698 254,688"/><polygon points="626,688 630,698 634,688"/><polygon points="1006,688 1010,698 1014,688"/><polygon points="1366,688 1370,698 1374,688"/></g>

  <!-- LAYER 3: DATA + INFRA -->
  <text x="80" y="726" fill="#00d4aa" font-family="monospace" font-size="12" font-weight="600" letter-spacing="3" opacity="0.7">DATA + INFRASTRUCTURE</text>

  <rect x="80" y="748" width="360" height="130" rx="16" fill="#0a0a0a" stroke="#ffffff" stroke-opacity="0.08" stroke-width="1"/>
  <rect x="80" y="748" width="360" height="3" rx="1.5" fill="#16c784"/>
  <text x="112" y="788" fill="#e8e8f0" font-family="system-ui, sans-serif" font-size="18" font-weight="700">Supabase</text>
  <text x="207" y="788" fill="#16c784" font-family="system-ui, sans-serif" font-size="14" font-weight="500">Postgres + Auth + RLS</text>
  <text fill="#8888a8" font-family="system-ui, sans-serif" font-size="13"><tspan x="112" y="816">Models, providers, users, listings,</tspan><tspan x="112" y="836">orders, scores — 50+ migrations</tspan></text>
  <text x="112" y="864" fill="#16c784" font-family="monospace" font-size="11" opacity="0.5">supabase/migrations/*</text>

  <rect x="500" y="748" width="360" height="130" rx="16" fill="#0a0a0a" stroke="#ffffff" stroke-opacity="0.08" stroke-width="1"/>
  <rect x="500" y="748" width="360" height="3" rx="1.5" fill="#ec4899"/>
  <text x="532" y="788" fill="#e8e8f0" font-family="system-ui, sans-serif" font-size="18" font-weight="700">Data Sources</text>
  <text fill="#8888a8" font-family="system-ui, sans-serif" font-size="13"><tspan x="532" y="816">OpenAI, Anthropic, Google, HuggingFace,</tspan><tspan x="532" y="836">Replicate, CivitAI, OpenRouter, + more</tspan></text>
  <text x="532" y="864" fill="#ec4899" font-family="monospace" font-size="11" opacity="0.5">src/lib/data-sources/*</text>

  <rect x="920" y="748" width="300" height="130" rx="16" fill="#0a0a0a" stroke="#ffffff" stroke-opacity="0.08" stroke-width="1"/>
  <rect x="920" y="748" width="300" height="3" rx="1.5" fill="#f59e0b"/>
  <text x="952" y="788" fill="#e8e8f0" font-family="system-ui, sans-serif" font-size="18" font-weight="700">Railway</text>
  <text x="1022" y="788" fill="#f59e0b" font-family="system-ui, sans-serif" font-size="14" font-weight="500">Container Runtime</text>
  <text fill="#8888a8" font-family="system-ui, sans-serif" font-size="13"><tspan x="952" y="816">App hosting, cron scheduler,</tspan><tspan x="952" y="836">custom server, health checks</tspan></text>
  <text x="952" y="864" fill="#f59e0b" font-family="monospace" font-size="11" opacity="0.5">server/ + Dockerfile</text>

  <rect x="1280" y="748" width="240" height="130" rx="16" fill="#0a0a0a" stroke="#ffffff" stroke-opacity="0.08" stroke-width="1"/>
  <rect x="1280" y="748" width="240" height="3" rx="1.5" fill="#f5a623"/>
  <text x="1312" y="788" fill="#e8e8f0" font-family="system-ui, sans-serif" font-size="18" font-weight="700">Cloudflare</text>
  <text fill="#8888a8" font-family="system-ui, sans-serif" font-size="13"><tspan x="1312" y="816">CDN, edge caching,</tspan><tspan x="1312" y="836">DDoS protection</tspan></text>

  <!-- LAYER 4: GOVERNANCE -->
  <text x="80" y="934" fill="#00d4aa" font-family="monospace" font-size="12" font-weight="600" letter-spacing="3" opacity="0.7">PUBLIC GOVERNANCE</text>

  <rect x="80" y="952" width="1440" height="72" rx="16" fill="#0a0a0a" stroke="#00d4aa" stroke-width="1" stroke-opacity="0.2"/>
  <g font-family="system-ui, sans-serif" font-size="15" font-weight="600">
    <text x="140" y="994" fill="#00d4aa">CONTRIBUTING</text>
    <text x="282" y="994" fill="#ffffff" fill-opacity="0.08">|</text>
    <text x="310" y="994" fill="#00d4aa">GOVERNANCE</text>
    <text x="428" y="994" fill="#ffffff" fill-opacity="0.08">|</text>
    <text x="456" y="994" fill="#00d4aa">REVENUE</text>
    <text x="546" y="994" fill="#ffffff" fill-opacity="0.08">|</text>
    <text x="574" y="994" fill="#00d4aa">SECURITY</text>
    <text x="672" y="994" fill="#ffffff" fill-opacity="0.08">|</text>
    <text x="700" y="994" fill="#00d4aa">CODE OF CONDUCT</text>
    <text x="872" y="994" fill="#ffffff" fill-opacity="0.08">|</text>
    <text x="900" y="994" fill="#00d4aa">COLLABORATORS</text>
    <text x="1050" y="994" fill="#ffffff" fill-opacity="0.08">|</text>
    <text x="1078" y="994" fill="#8888a8">TRADEMARK</text>
    <text x="1186" y="994" fill="#ffffff" fill-opacity="0.08">|</text>
    <text x="1214" y="994" fill="#8888a8">Apache 2.0</text>
  </g>

  <!-- Footer -->
  <text x="80" y="1072" fill="#8888a8" font-family="system-ui, sans-serif" font-size="13" opacity="0.6">Product first. Public by default. Built to make the AI model economy legible.</text>
  <rect x="1" y="1" width="1598" height="1098" rx="12" stroke="#ffffff" stroke-opacity="0.08" stroke-width="1" fill="none"/>
</svg>