<svg width="1600" height="900" viewBox="0 0 1600 900" fill="none" xmlns="http://www.w3.org/2000/svg">
  <defs>
    <linearGradient id="bg" x1="0" y1="0" x2="1600" y2="900" gradientUnits="userSpaceOnUse">
      <stop offset="0%" stop-color="#020617"/><stop offset="100%" stop-color="#0C1222"/>
    </linearGradient>
    <filter id="cardShadow"><feDropShadow dx="0" dy="4" stdDeviation="12" flood-color="#000" flood-opacity="0.5"/></filter>
    <filter id="glow"><feGaussianBlur stdDeviation="6" result="b"/><feMerge><feMergeNode in="b"/><feMergeNode in="SourceGraphic"/></feMerge></filter>
    <linearGradient id="progressGrad" x1="0" y1="0" x2="1" y2="0">
      <stop offset="0%" stop-color="#00D4AA"/><stop offset="100%" stop-color="#39FF14"/>
    </linearGradient>
    <linearGradient id="heatLow" x1="0" y1="0" x2="1" y2="0">
      <stop offset="0%" stop-color="#1E3A5F"/><stop offset="100%" stop-color="#00D4AA"/>
    </linearGradient>
  </defs>

  <rect width="1600" height="900" fill="url(#bg)"/>

  <!-- Grid -->
  <g opacity="0.025" stroke="#00D4AA" stroke-width="0.5">
    <line x1="0" y1="180" x2="1600" y2="180"/><line x1="0" y1="360" x2="1600" y2="360"/>
    <line x1="0" y1="540" x2="1600" y2="540"/><line x1="0" y1="720" x2="1600" y2="720"/>
  </g>

  <!-- Header -->
  <text x="80" y="60" fill="#F0FDF9" font-family="'Inter', sans-serif" font-size="36" font-weight="700" letter-spacing="-1">Multi-Lens Leaderboards</text>
  <text x="80" y="92" fill="#64748B" font-family="'Inter', sans-serif" font-size="16">Rank the same models by different signals — capability, popularity, adoption, economic footprint, and value</text>

  <!-- Lens pills -->
  <g transform="translate(80, 116)">
    <rect width="110" height="32" rx="16" fill="#00D4AA" fill-opacity="0.15" stroke="#00D4AA" stroke-width="1.5"/>
    <text x="18" y="21" fill="#00D4AA" font-family="'Inter', sans-serif" font-size="13" font-weight="600">Capability</text>
    <rect x="120" width="100" height="32" rx="16" fill="transparent" stroke="#334155" stroke-width="1"/>
    <text x="138" y="21" fill="#94A3B8" font-family="'Inter', sans-serif" font-size="13" font-weight="500">Popularity</text>
    <rect x="230" width="96" height="32" rx="16" fill="transparent" stroke="#334155" stroke-width="1"/>
    <text x="248" y="21" fill="#94A3B8" font-family="'Inter', sans-serif" font-size="13" font-weight="500">Adoption</text>
    <rect x="336" width="104" height="32" rx="16" fill="transparent" stroke="#334155" stroke-width="1"/>
    <text x="354" y="21" fill="#94A3B8" font-family="'Inter', sans-serif" font-size="13" font-weight="500">Economic</text>
    <rect x="450" width="76" height="32" rx="16" fill="transparent" stroke="#334155" stroke-width="1"/>
    <text x="468" y="21" fill="#94A3B8" font-family="'Inter', sans-serif" font-size="13" font-weight="500">Value</text>
  </g>

  <!-- ═══════════ LEADERBOARD TABLE MOCKUP ═══════════ -->
  <g filter="url(#cardShadow)">
    <rect x="60" y="168" width="780" height="700" rx="16" fill="#0F172A" stroke="#1E293B" stroke-width="1"/>

    <!-- Table header -->
    <rect x="60" y="168" width="780" height="44" rx="16" fill="#1E293B"/>
    <rect x="60" y="196" width="780" height="16" fill="#1E293B"/>
    <text x="92" y="197" fill="#64748B" font-family="'SF Mono', monospace" font-size="11" font-weight="600">#</text>
    <text x="122" y="197" fill="#64748B" font-family="'SF Mono', monospace" font-size="11" font-weight="600">MODEL</text>
    <text x="382" y="197" fill="#64748B" font-family="'SF Mono', monospace" font-size="11" font-weight="600">SCORE</text>
    <text x="462" y="197" fill="#64748B" font-family="'SF Mono', monospace" font-size="11" font-weight="600">QUALITY</text>
    <text x="542" y="197" fill="#64748B" font-family="'SF Mono', monospace" font-size="11" font-weight="600">MMLU</text>
    <text x="602" y="197" fill="#64748B" font-family="'SF Mono', monospace" font-size="11" font-weight="600">$/M</text>
    <text x="672" y="197" fill="#64748B" font-family="'SF Mono', monospace" font-size="11" font-weight="600">POPULARITY</text>
    <text x="782" y="197" fill="#64748B" font-family="'SF Mono', monospace" font-size="11" font-weight="600">OW</text>

    <!-- Row 1 — Gold crown -->
    <rect x="60" y="212" width="780" height="56" fill="#00D4AA" fill-opacity="0.04"/>
    <text x="92" y="246" fill="#FFD700" font-family="'Inter', sans-serif" font-size="16" font-weight="800">1</text>
    <circle cx="142" cy="240" r="14" fill="#10B981" fill-opacity="0.2" stroke="#10B981" stroke-width="1"/>
    <text x="137" y="244" fill="#10B981" font-family="'Inter', sans-serif" font-size="11" font-weight="700">O</text>
    <text x="166" y="238" fill="#F0FDF9" font-family="'Inter', sans-serif" font-size="15" font-weight="700">GPT-5</text>
    <text x="166" y="254" fill="#64748B" font-family="'Inter', sans-serif" font-size="11">OpenAI</text>
    <rect x="246" y="230" width="42" height="20" rx="4" fill="#3B82F6" fill-opacity="0.15"/>
    <text x="254" y="244" fill="#60A5FA" font-family="'Inter', sans-serif" font-size="10" font-weight="600">LLM</text>
    <text x="382" y="246" fill="#00D4AA" font-family="'SF Mono', monospace" font-size="16" font-weight="800" filter="url(#glow)">96.4</text>
    <text x="462" y="246" fill="#E2E8F0" font-family="'SF Mono', monospace" font-size="14">94.2</text>
    <text x="542" y="246" fill="#E2E8F0" font-family="'SF Mono', monospace" font-size="14">92.1</text>
    <text x="602" y="246" fill="#4ADE80" font-family="'SF Mono', monospace" font-size="14">$2.50</text>
    <!-- Popularity bar -->
    <rect x="672" y="237" width="86" height="6" rx="3" fill="#1E293B"/>
    <rect x="672" y="237" width="82" height="6" rx="3" fill="url(#progressGrad)"/>
    <text x="764" y="246" fill="#94A3B8" font-family="'SF Mono', monospace" font-size="11">96%</text>
    <circle cx="792" cy="240" r="5" fill="none" stroke="#475569" stroke-width="1.5"/>

    <!-- Row 2 — Silver -->
    <text x="92" y="302" fill="#C0C0C0" font-family="'Inter', sans-serif" font-size="16" font-weight="800">2</text>
    <circle cx="142" cy="296" r="14" fill="#D4A574" fill-opacity="0.2" stroke="#D4A574" stroke-width="1"/>
    <text x="137" y="300" fill="#D4A574" font-family="'Inter', sans-serif" font-size="11" font-weight="700">A</text>
    <text x="166" y="294" fill="#F0FDF9" font-family="'Inter', sans-serif" font-size="15" font-weight="700">Claude Opus 4</text>
    <text x="166" y="310" fill="#64748B" font-family="'Inter', sans-serif" font-size="11">Anthropic</text>
    <rect x="270" y="286" width="42" height="20" rx="4" fill="#3B82F6" fill-opacity="0.15"/>
    <text x="278" y="300" fill="#60A5FA" font-family="'Inter', sans-serif" font-size="10" font-weight="600">LLM</text>
    <text x="382" y="302" fill="#00D4AA" font-family="'SF Mono', monospace" font-size="16" font-weight="800">95.1</text>
    <text x="462" y="302" fill="#E2E8F0" font-family="'SF Mono', monospace" font-size="14">95.8</text>
    <text x="542" y="302" fill="#E2E8F0" font-family="'SF Mono', monospace" font-size="14">91.7</text>
    <text x="602" y="302" fill="#4ADE80" font-family="'SF Mono', monospace" font-size="14">$3.00</text>
    <rect x="672" y="293" width="86" height="6" rx="3" fill="#1E293B"/>
    <rect x="672" y="293" width="78" height="6" rx="3" fill="url(#progressGrad)"/>
    <text x="764" y="302" fill="#94A3B8" font-family="'SF Mono', monospace" font-size="11">91%</text>
    <circle cx="792" cy="296" r="5" fill="none" stroke="#475569" stroke-width="1.5"/>

    <!-- Row 3 — Bronze -->
    <text x="92" y="358" fill="#CD7F32" font-family="'Inter', sans-serif" font-size="16" font-weight="800">3</text>
    <circle cx="142" cy="352" r="14" fill="#4285F4" fill-opacity="0.2" stroke="#4285F4" stroke-width="1"/>
    <text x="137" y="356" fill="#4285F4" font-family="'Inter', sans-serif" font-size="11" font-weight="700">G</text>
    <text x="166" y="350" fill="#F0FDF9" font-family="'Inter', sans-serif" font-size="15" font-weight="700">Gemini 2 Ultra</text>
    <text x="166" y="366" fill="#64748B" font-family="'Inter', sans-serif" font-size="11">Google</text>
    <rect x="290" y="342" width="42" height="20" rx="4" fill="#3B82F6" fill-opacity="0.15"/>
    <text x="298" y="356" fill="#60A5FA" font-family="'Inter', sans-serif" font-size="10" font-weight="600">LLM</text>
    <text x="382" y="358" fill="#00D4AA" font-family="'SF Mono', monospace" font-size="16" font-weight="800">93.8</text>
    <text x="462" y="358" fill="#E2E8F0" font-family="'SF Mono', monospace" font-size="14">93.5</text>
    <text x="542" y="358" fill="#E2E8F0" font-family="'SF Mono', monospace" font-size="14">90.4</text>
    <text x="602" y="358" fill="#4ADE80" font-family="'SF Mono', monospace" font-size="14">$1.25</text>
    <rect x="672" y="349" width="86" height="6" rx="3" fill="#1E293B"/>
    <rect x="672" y="349" width="74" height="6" rx="3" fill="url(#progressGrad)"/>
    <text x="764" y="358" fill="#94A3B8" font-family="'SF Mono', monospace" font-size="11">86%</text>
    <circle cx="792" cy="352" r="5" fill="none" stroke="#475569" stroke-width="1.5"/>

    <!-- Row 4 -->
    <rect x="60" y="380" width="780" height="56" fill="#00D4AA" fill-opacity="0.02"/>
    <text x="92" y="414" fill="#94A3B8" font-family="'Inter', sans-serif" font-size="16" font-weight="700">4</text>
    <circle cx="142" cy="408" r="14" fill="#1E40AF" fill-opacity="0.3" stroke="#3B82F6" stroke-width="1"/>
    <text x="137" y="412" fill="#3B82F6" font-family="'Inter', sans-serif" font-size="11" font-weight="700">M</text>
    <text x="166" y="406" fill="#F0FDF9" font-family="'Inter', sans-serif" font-size="15" font-weight="600">Llama 4 Maverick</text>
    <text x="166" y="422" fill="#64748B" font-family="'Inter', sans-serif" font-size="11">Meta</text>
    <rect x="300" y="398" width="42" height="20" rx="4" fill="#3B82F6" fill-opacity="0.15"/>
    <text x="308" y="412" fill="#60A5FA" font-family="'Inter', sans-serif" font-size="10" font-weight="600">LLM</text>
    <text x="382" y="414" fill="#CBD5E1" font-family="'SF Mono', monospace" font-size="16" font-weight="700">91.2</text>
    <text x="462" y="414" fill="#E2E8F0" font-family="'SF Mono', monospace" font-size="14">90.1</text>
    <text x="542" y="414" fill="#E2E8F0" font-family="'SF Mono', monospace" font-size="14">89.8</text>
    <text x="602" y="414" fill="#4ADE80" font-family="'SF Mono', monospace" font-size="14">$0.40</text>
    <rect x="672" y="405" width="86" height="6" rx="3" fill="#1E293B"/>
    <rect x="672" y="405" width="70" height="6" rx="3" fill="url(#progressGrad)"/>
    <text x="764" y="414" fill="#94A3B8" font-family="'SF Mono', monospace" font-size="11">81%</text>
    <circle cx="792" cy="408" r="5" fill="#00D4AA"/>

    <!-- Row 5 -->
    <text x="92" y="470" fill="#94A3B8" font-family="'Inter', sans-serif" font-size="16" font-weight="700">5</text>
    <circle cx="142" cy="464" r="14" fill="#F97316" fill-opacity="0.2" stroke="#F97316" stroke-width="1"/>
    <text x="137" y="468" fill="#F97316" font-family="'Inter', sans-serif" font-size="11" font-weight="700">M</text>
    <text x="166" y="462" fill="#F0FDF9" font-family="'Inter', sans-serif" font-size="15" font-weight="600">Mistral Large 3</text>
    <text x="166" y="478" fill="#64748B" font-family="'Inter', sans-serif" font-size="11">Mistral AI</text>
    <rect x="288" y="454" width="42" height="20" rx="4" fill="#3B82F6" fill-opacity="0.15"/>
    <text x="296" y="468" fill="#60A5FA" font-family="'Inter', sans-serif" font-size="10" font-weight="600">LLM</text>
    <text x="382" y="470" fill="#CBD5E1" font-family="'SF Mono', monospace" font-size="16" font-weight="700">89.7</text>
    <text x="462" y="470" fill="#E2E8F0" font-family="'SF Mono', monospace" font-size="14">88.4</text>
    <text x="542" y="470" fill="#E2E8F0" font-family="'SF Mono', monospace" font-size="14">87.2</text>
    <text x="602" y="470" fill="#4ADE80" font-family="'SF Mono', monospace" font-size="14">$0.80</text>
    <rect x="672" y="461" width="86" height="6" rx="3" fill="#1E293B"/>
    <rect x="672" y="461" width="58" height="6" rx="3" fill="url(#progressGrad)"/>
    <text x="764" y="470" fill="#94A3B8" font-family="'SF Mono', monospace" font-size="11">67%</text>
    <circle cx="792" cy="464" r="5" fill="none" stroke="#475569" stroke-width="1.5"/>

    <!-- More rows indicator -->
    <text x="400" y="530" fill="#334155" font-family="'Inter', sans-serif" font-size="14" text-anchor="middle">... 200+ models ranked across 12 categories</text>

    <!-- Tabs at bottom of card -->
    <g transform="translate(80, 560)">
      <rect width="86" height="30" rx="6" fill="#00D4AA" fill-opacity="0.12" stroke="#00D4AA" stroke-width="1"/>
      <text x="14" y="20" fill="#00D4AA" font-family="'Inter', sans-serif" font-size="12" font-weight="600">Explorer</text>
      <text x="106" y="20" fill="#64748B" font-family="'Inter', sans-serif" font-size="12">Benchmarks</text>
      <text x="202" y="20" fill="#64748B" font-family="'Inter', sans-serif" font-size="12">Quality vs Price</text>
      <text x="322" y="20" fill="#64748B" font-family="'Inter', sans-serif" font-size="12">Rank History</text>
      <text x="422" y="20" fill="#64748B" font-family="'Inter', sans-serif" font-size="12">Agent Score</text>
      <text x="522" y="20" fill="#64748B" font-family="'Inter', sans-serif" font-size="12">Top 20</text>
      <text x="582" y="20" fill="#64748B" font-family="'Inter', sans-serif" font-size="12">Speed</text>
      <text x="632" y="20" fill="#64748B" font-family="'Inter', sans-serif" font-size="12">Best Value</text>
    </g>

    <!-- Benchmark heatmap mini -->
    <g transform="translate(80, 610)">
      <text x="0" y="14" fill="#94A3B8" font-family="'Inter', sans-serif" font-size="12" font-weight="600">BENCHMARK HEATMAP</text>
      <!-- Mini heatmap cells -->
      <g transform="translate(0, 24)">
        <text x="0" y="12" fill="#64748B" font-family="'SF Mono', monospace" font-size="9">GPT-5</text>
        <rect x="100" y="0" width="48" height="18" rx="3" fill="#00D4AA" fill-opacity="0.8"/><text x="114" y="13" fill="#020617" font-family="'SF Mono', monospace" font-size="10" font-weight="600">92.1</text>
        <rect x="152" y="0" width="48" height="18" rx="3" fill="#00D4AA" fill-opacity="0.9"/><text x="166" y="13" fill="#020617" font-family="'SF Mono', monospace" font-size="10" font-weight="600">94.3</text>
        <rect x="204" y="0" width="48" height="18" rx="3" fill="#00D4AA" fill-opacity="0.7"/><text x="218" y="13" fill="#020617" font-family="'SF Mono', monospace" font-size="10" font-weight="600">88.9</text>
        <rect x="256" y="0" width="48" height="18" rx="3" fill="#00D4AA" fill-opacity="0.85"/><text x="270" y="13" fill="#020617" font-family="'SF Mono', monospace" font-size="10" font-weight="600">91.6</text>
        <rect x="308" y="0" width="48" height="18" rx="3" fill="#00D4AA" fill-opacity="0.75"/><text x="322" y="13" fill="#020617" font-family="'SF Mono', monospace" font-size="10" font-weight="600">89.2</text>
      </g>
      <g transform="translate(0, 46)">
        <text x="0" y="12" fill="#64748B" font-family="'SF Mono', monospace" font-size="9">Claude 4</text>
        <rect x="100" y="0" width="48" height="18" rx="3" fill="#00D4AA" fill-opacity="0.85"/><text x="114" y="13" fill="#020617" font-family="'SF Mono', monospace" font-size="10" font-weight="600">91.7</text>
        <rect x="152" y="0" width="48" height="18" rx="3" fill="#00D4AA" fill-opacity="0.95"/><text x="166" y="13" fill="#020617" font-family="'SF Mono', monospace" font-size="10" font-weight="600">95.8</text>
        <rect x="204" y="0" width="48" height="18" rx="3" fill="#00D4AA" fill-opacity="0.65"/><text x="218" y="13" fill="#020617" font-family="'SF Mono', monospace" font-size="10" font-weight="600">86.4</text>
        <rect x="256" y="0" width="48" height="18" rx="3" fill="#00D4AA" fill-opacity="0.9"/><text x="270" y="13" fill="#020617" font-family="'SF Mono', monospace" font-size="10" font-weight="600">93.1</text>
        <rect x="308" y="0" width="48" height="18" rx="3" fill="#00D4AA" fill-opacity="0.7"/><text x="322" y="13" fill="#020617" font-family="'SF Mono', monospace" font-size="10" font-weight="600">88.7</text>
      </g>
      <g transform="translate(0, 68)">
        <text x="0" y="12" fill="#64748B" font-family="'SF Mono', monospace" font-size="9">Gemini 2</text>
        <rect x="100" y="0" width="48" height="18" rx="3" fill="#00D4AA" fill-opacity="0.75"/><text x="114" y="13" fill="#020617" font-family="'SF Mono', monospace" font-size="10" font-weight="600">90.4</text>
        <rect x="152" y="0" width="48" height="18" rx="3" fill="#00D4AA" fill-opacity="0.8"/><text x="166" y="13" fill="#020617" font-family="'SF Mono', monospace" font-size="10" font-weight="600">93.5</text>
        <rect x="204" y="0" width="48" height="18" rx="3" fill="#00D4AA" fill-opacity="0.82"/><text x="218" y="13" fill="#020617" font-family="'SF Mono', monospace" font-size="10" font-weight="600">90.1</text>
        <rect x="256" y="0" width="48" height="18" rx="3" fill="#00D4AA" fill-opacity="0.72"/><text x="270" y="13" fill="#020617" font-family="'SF Mono', monospace" font-size="10" font-weight="600">89.0</text>
        <rect x="308" y="0" width="48" height="18" rx="3" fill="#00D4AA" fill-opacity="0.6"/><text x="322" y="13" fill="#020617" font-family="'SF Mono', monospace" font-size="10" font-weight="600">84.5</text>
      </g>
      <!-- Column labels -->
      <g font-family="'SF Mono', monospace" font-size="9" fill="#475569">
        <text x="106" y="-4">MMLU</text><text x="154" y="-4">HumanEval</text><text x="216" y="-4">MATH</text><text x="264" y="-4">GPQA</text><text x="316" y="-4">BBH</text>
      </g>
    </g>
  </g>

  <!-- ═══════════ RIGHT PANEL: FEATURES ═══════════ -->

  <!-- Quality vs Price scatter mini -->
  <g filter="url(#cardShadow)">
    <rect x="880" y="168" width="660" height="320" rx="16" fill="#0F172A" stroke="#1E293B" stroke-width="1"/>
    <text x="912" y="200" fill="#E2E8F0" font-family="'Inter', sans-serif" font-size="18" font-weight="700">Quality vs Price Frontier</text>
    <text x="912" y="220" fill="#64748B" font-family="'Inter', sans-serif" font-size="12">Find the best models for your budget — bubble size = parameter count</text>

    <!-- Axes -->
    <line x1="940" y1="440" x2="1480" y2="440" stroke="#1E293B" stroke-width="1"/>
    <line x1="940" y1="260" x2="940" y2="440" stroke="#1E293B" stroke-width="1"/>
    <text x="1200" y="468" fill="#475569" font-family="'SF Mono', monospace" font-size="10" text-anchor="middle">Price ($/M tokens)</text>
    <text x="916" y="350" fill="#475569" font-family="'SF Mono', monospace" font-size="10" transform="rotate(-90 916 350)">Quality</text>

    <!-- Scatter bubbles -->
    <circle cx="1020" cy="290" r="22" fill="#10B981" fill-opacity="0.3" stroke="#10B981" stroke-width="1.5"/>
    <text x="1020" y="294" fill="#10B981" font-family="'SF Mono', monospace" font-size="9" text-anchor="middle">GPT-5</text>
    <circle cx="1100" cy="280" r="18" fill="#D4A574" fill-opacity="0.3" stroke="#D4A574" stroke-width="1.5"/>
    <text x="1100" y="284" fill="#D4A574" font-family="'SF Mono', monospace" font-size="9" text-anchor="middle">Claude</text>
    <circle cx="980" cy="300" r="20" fill="#4285F4" fill-opacity="0.3" stroke="#4285F4" stroke-width="1.5"/>
    <text x="980" y="304" fill="#4285F4" font-family="'SF Mono', monospace" font-size="9" text-anchor="middle">Gemini</text>
    <circle cx="970" cy="340" r="26" fill="#3B82F6" fill-opacity="0.3" stroke="#3B82F6" stroke-width="1.5"/>
    <text x="970" y="344" fill="#3B82F6" font-family="'SF Mono', monospace" font-size="9" text-anchor="middle">Llama 4</text>
    <circle cx="1200" cy="320" r="15" fill="#F97316" fill-opacity="0.3" stroke="#F97316" stroke-width="1.5"/>
    <text x="1200" y="324" fill="#F97316" font-family="'SF Mono', monospace" font-size="9" text-anchor="middle">Mistral</text>
    <circle cx="1350" cy="360" r="12" fill="#8B5CF6" fill-opacity="0.3" stroke="#8B5CF6" stroke-width="1.5"/>
    <text x="1350" y="364" fill="#8B5CF6" font-family="'SF Mono', monospace" font-size="9" text-anchor="middle">Cohere</text>
    <circle cx="960" cy="390" r="14" fill="#EF4444" fill-opacity="0.3" stroke="#EF4444" stroke-width="1.5"/>
    <text x="960" y="394" fill="#EF4444" font-family="'SF Mono', monospace" font-size="9" text-anchor="middle">Phi-4</text>
    <circle cx="1080" cy="370" r="10" fill="#06B6D4" fill-opacity="0.3" stroke="#06B6D4" stroke-width="1.5"/>
  </g>

  <!-- Category breakdown -->
  <g filter="url(#cardShadow)">
    <rect x="880" y="508" width="320" height="260" rx="16" fill="#0F172A" stroke="#1E293B" stroke-width="1"/>
    <text x="912" y="542" fill="#E2E8F0" font-family="'Inter', sans-serif" font-size="16" font-weight="700">12 Categories</text>

    <g transform="translate(912, 562)" font-family="'Inter', sans-serif" font-size="13">
      <circle cx="6" cy="8" r="5" fill="#3B82F6"/><text x="20" y="13" fill="#CBD5E1">LLM</text><text x="160" y="13" fill="#64748B">84 models</text>
      <circle cx="6" cy="32" r="5" fill="#10B981"/><text x="20" y="37" fill="#CBD5E1">Code</text><text x="160" y="37" fill="#64748B">42 models</text>
      <circle cx="6" cy="56" r="5" fill="#F59E0B"/><text x="20" y="61" fill="#CBD5E1">Image Gen</text><text x="160" y="61" fill="#64748B">38 models</text>
      <circle cx="6" cy="80" r="5" fill="#8B5CF6"/><text x="20" y="85" fill="#CBD5E1">Multimodal</text><text x="160" y="85" fill="#64748B">31 models</text>
      <circle cx="6" cy="104" r="5" fill="#EF4444"/><text x="20" y="109" fill="#CBD5E1">Agent</text><text x="160" y="109" fill="#64748B">24 models</text>
      <circle cx="6" cy="128" r="5" fill="#06B6D4"/><text x="20" y="133" fill="#CBD5E1">Embedding</text><text x="160" y="133" fill="#64748B">19 models</text>
      <circle cx="6" cy="152" r="5" fill="#F97316"/><text x="20" y="157" fill="#CBD5E1">Speech + 6 more</text><text x="160" y="157" fill="#64748B">62 models</text>
    </g>
  </g>

  <!-- Speed leaderboard mini -->
  <g filter="url(#cardShadow)">
    <rect x="1220" y="508" width="320" height="260" rx="16" fill="#0F172A" stroke="#1E293B" stroke-width="1"/>
    <text x="1252" y="542" fill="#E2E8F0" font-family="'Inter', sans-serif" font-size="16" font-weight="700">Speed Rankings</text>
    <text x="1252" y="562" fill="#64748B" font-family="'Inter', sans-serif" font-size="12">Tokens/sec vs cost tradeoff</text>

    <g transform="translate(1252, 580)" font-family="'SF Mono', monospace" font-size="12">
      <text x="0" y="16" fill="#FFD700" font-weight="700">1</text><text x="20" y="16" fill="#CBD5E1">Groq Llama 3</text><text x="176" y="16" fill="#39FF14" font-weight="600">1,240 t/s</text>
      <text x="0" y="42" fill="#C0C0C0" font-weight="700">2</text><text x="20" y="42" fill="#CBD5E1">Cerebras GPT</text><text x="176" y="42" fill="#39FF14" font-weight="600">980 t/s</text>
      <text x="0" y="68" fill="#CD7F32" font-weight="700">3</text><text x="20" y="68" fill="#CBD5E1">Fireworks Llama</text><text x="176" y="68" fill="#39FF14" font-weight="600">820 t/s</text>
      <text x="0" y="94" fill="#94A3B8">4</text><text x="20" y="94" fill="#94A3B8">GPT-5 Turbo</text><text x="176" y="94" fill="#94A3B8">680 t/s</text>
      <text x="0" y="120" fill="#94A3B8">5</text><text x="20" y="120" fill="#94A3B8">Claude Haiku 4</text><text x="176" y="120" fill="#94A3B8">540 t/s</text>
    </g>
  </g>

  <!-- Footer -->
  <text x="80" y="880" fill="#334155" font-family="'Inter', sans-serif" font-size="13">8 interactive tabs: Explorer, Benchmarks, Quality vs Price, Rank History, Agent Score, Top 20, Speed, Best Value</text>
  <rect x="1" y="1" width="1598" height="898" rx="12" stroke="#1E293B" stroke-width="1" fill="none"/>
</svg>