<svg width="1600" height="900" viewBox="0 0 1600 900" fill="none" xmlns="http://www.w3.org/2000/svg">
  <rect width="1600" height="900" rx="36" fill="#000000"/>
  <rect x="28" y="28" width="1544" height="844" rx="32" fill="#0A0A0A" stroke="#14342D" stroke-width="2"/>

  <circle cx="1318" cy="186" r="132" fill="#00D4AA" fill-opacity="0.08"/>
  <circle cx="1382" cy="662" r="122" fill="#00D4AA" fill-opacity="0.06"/>
  <circle cx="1182" cy="436" r="88" fill="#39FF14" fill-opacity="0.05"/>

  <path d="M834 224C956 178 1078 184 1198 232C1300 272 1382 330 1456 410" stroke="#00D4AA" stroke-opacity="0.6" stroke-width="4"/>
  <path d="M808 360C932 330 1054 344 1174 392C1280 434 1368 492 1442 570" stroke="#00D4AA" stroke-opacity="0.52" stroke-width="4"/>
  <path d="M788 504C924 490 1040 514 1162 566C1270 612 1360 664 1432 736" stroke="#39FF14" stroke-opacity="0.42" stroke-width="3.5"/>

  <g fill="#00D4AA">
    <circle cx="864" cy="214" r="14"/>
    <circle cx="998" cy="198" r="11"/>
    <circle cx="1128" cy="214" r="13"/>
    <circle cx="1266" cy="258" r="14"/>
    <circle cx="1394" cy="348" r="11"/>
    <circle cx="838" cy="352" r="11"/>
    <circle cx="972" cy="344" r="14"/>
    <circle cx="1114" cy="368" r="12"/>
    <circle cx="1252" cy="416" r="14"/>
    <circle cx="1384" cy="504" r="11"/>
  </g>

  <g fill="#39FF14">
    <circle cx="808" cy="498" r="12"/>
    <circle cx="954" cy="514" r="10"/>
    <circle cx="1098" cy="548" r="14"/>
    <circle cx="1244" cy="598" r="11"/>
    <circle cx="1388" cy="686" r="12"/>
  </g>

  <rect x="96" y="110" width="612" height="118" rx="20" fill="#050505" stroke="#1A4037"/>
  <text x="132" y="164" fill="#9BE8D9" font-family="Segoe UI, Arial, sans-serif" font-size="30" font-weight="600">
    <tspan x="132" dy="0">Public intelligence infrastructure</tspan>
    <tspan x="132" dy="38">for the AI model economy</tspan>
  </text>

  <text x="96" y="350" fill="#F4FFFC" font-family="Segoe UI, Arial, sans-serif" font-size="98" font-weight="700">
    AI Market Cap
  </text>

  <text x="96" y="430" fill="#C6FFF2" font-family="Segoe UI, Arial, sans-serif" font-size="38" font-weight="600">
    The public market graph for AI models
  </text>

  <text x="96" y="520" fill="#9FD7CC" font-family="Segoe UI, Arial, sans-serif" font-size="31">
    <tspan x="96" dy="0">Track benchmarks, pricing, launches, provider momentum,</tspan>
    <tspan x="96" dy="42">trust signals, and agent-native commerce in one place.</tspan>
  </text>

  <rect x="96" y="616" width="258" height="68" rx="18" fill="#050505" stroke="#00D4AA" stroke-width="2"/>
  <text x="136" y="660" fill="#00D4AA" font-family="Segoe UI, Arial, sans-serif" font-size="30" font-weight="700">
    aimarketcap.tech
  </text>

  <rect x="378" y="616" width="234" height="68" rx="18" fill="#050505" stroke="#39FF14" stroke-width="2"/>
  <text x="420" y="660" fill="#39FF14" font-family="Segoe UI, Arial, sans-serif" font-size="30" font-weight="700">
    Built in public
  </text>

  <rect x="96" y="732" width="556" height="92" rx="20" fill="#050505" stroke="#1A4037"/>
  <text x="132" y="788" fill="#E7FFFA" font-family="Segoe UI, Arial, sans-serif" font-size="26" font-weight="600">
    For users, sponsors, collaborators, and developers
  </text>
</svg>
