<svg width="1600" height="860" viewBox="0 0 1600 860" fill="none" xmlns="http://www.w3.org/2000/svg">
  <rect width="1600" height="860" rx="36" fill="#071512"/>
  <rect x="32" y="32" width="1536" height="796" rx="32" fill="url(#bg)" stroke="#13322D"/>
  <circle cx="1296" cy="174" r="176" fill="url(#orb1)" opacity="0.35"/>
  <circle cx="1364" cy="666" r="164" fill="url(#orb2)" opacity="0.22"/>
  <circle cx="336" cy="200" r="144" fill="url(#orb3)" opacity="0.24"/>

  <path d="M760 250C918 186 1072 196 1230 252C1320 284 1398 332 1460 394" stroke="url(#line1)" stroke-width="4"/>
  <path d="M738 356C900 318 1068 336 1218 390C1320 426 1400 474 1454 532" stroke="url(#line2)" stroke-width="3.5" opacity="0.9"/>
  <path d="M726 472C892 456 1056 486 1198 542C1302 582 1386 634 1444 694" stroke="url(#line3)" stroke-width="3" opacity="0.75"/>

  <g fill="#39FF14">
    <circle cx="812" cy="230" r="14"/>
    <circle cx="964" cy="208" r="10"/>
    <circle cx="1108" cy="224" r="12"/>
    <circle cx="1266" cy="270" r="13"/>
    <circle cx="1400" cy="354" r="10"/>
  </g>
  <g fill="#00D4AA">
    <circle cx="778" cy="350" r="10"/>
    <circle cx="926" cy="338" r="14"/>
    <circle cx="1088" cy="366" r="11"/>
    <circle cx="1240" cy="418" r="13"/>
    <circle cx="1392" cy="510" r="11"/>
  </g>
  <g fill="#5DE0FF">
    <circle cx="744" cy="470" r="12"/>
    <circle cx="902" cy="486" r="10"/>
    <circle cx="1062" cy="520" r="14"/>
    <circle cx="1228" cy="574" r="11"/>
    <circle cx="1384" cy="664" r="12"/>
  </g>

  <rect x="104" y="118" width="520" height="94" rx="47" fill="#0D2B25" stroke="#1A4B42"/>
  <text x="146" y="177" fill="#8EDFD4" font-family="Segoe UI, Arial, sans-serif" font-size="28" font-weight="600">
    Public intelligence infrastructure for the AI model economy
  </text>

  <text x="102" y="336" fill="#F4FFFC" font-family="Segoe UI, Arial, sans-serif" font-size="92" font-weight="700">
    AI Market Cap
  </text>

  <text x="104" y="414" fill="#C8FFF6" font-family="Segoe UI, Arial, sans-serif" font-size="34" font-weight="600">
    The public market graph for AI models
  </text>

  <text x="104" y="494" fill="#A9D8D1" font-family="Segoe UI, Arial, sans-serif" font-size="30">
    <tspan x="104" dy="0">Track benchmarks, pricing, launches, provider momentum,</tspan>
    <tspan x="104" dy="44">trust signals, and agent-native commerce in one place.</tspan>
  </text>

  <g>
    <rect x="104" y="596" width="220" height="62" rx="31" fill="#0F332B" stroke="#39FF14"/>
    <text x="146" y="636" fill="#39FF14" font-family="Segoe UI, Arial, sans-serif" font-size="28" font-weight="700">
      aimarketcap.tech
    </text>
  </g>

  <g>
    <rect x="346" y="596" width="210" height="62" rx="31" fill="#0C2B31" stroke="#5DE0FF"/>
    <text x="394" y="636" fill="#5DE0FF" font-family="Segoe UI, Arial, sans-serif" font-size="28" font-weight="700">
      Built in public
    </text>
  </g>

  <g>
    <rect x="104" y="706" width="462" height="74" rx="24" fill="#081A17" stroke="#173E37"/>
    <text x="136" y="748" fill="#F4FFFC" font-family="Segoe UI, Arial, sans-serif" font-size="24" font-weight="600">
      For users, sponsors, collaborators, and developers
    </text>
  </g>

  <defs>
    <linearGradient id="bg" x1="0" y1="0" x2="1600" y2="860" gradientUnits="userSpaceOnUse">
      <stop stop-color="#0B1E19"/>
      <stop offset="0.52" stop-color="#071512"/>
      <stop offset="1" stop-color="#09111A"/>
    </linearGradient>
    <radialGradient id="orb1" cx="0" cy="0" r="1" gradientUnits="userSpaceOnUse" gradientTransform="translate(1296 174) rotate(90) scale(176)">
      <stop stop-color="#39FF14"/>
      <stop offset="1" stop-color="#39FF14" stop-opacity="0"/>
    </radialGradient>
    <radialGradient id="orb2" cx="0" cy="0" r="1" gradientUnits="userSpaceOnUse" gradientTransform="translate(1364 666) rotate(90) scale(164)">
      <stop stop-color="#5DE0FF"/>
      <stop offset="1" stop-color="#5DE0FF" stop-opacity="0"/>
    </radialGradient>
    <radialGradient id="orb3" cx="0" cy="0" r="1" gradientUnits="userSpaceOnUse" gradientTransform="translate(336 200) rotate(90) scale(144)">
      <stop stop-color="#00D4AA"/>
      <stop offset="1" stop-color="#00D4AA" stop-opacity="0"/>
    </radialGradient>
    <linearGradient id="line1" x1="760" y1="250" x2="1460" y2="394" gradientUnits="userSpaceOnUse">
      <stop stop-color="#39FF14" stop-opacity="0.25"/>
      <stop offset="0.5" stop-color="#00D4AA"/>
      <stop offset="1" stop-color="#5DE0FF" stop-opacity="0.35"/>
    </linearGradient>
    <linearGradient id="line2" x1="738" y1="356" x2="1454" y2="532" gradientUnits="userSpaceOnUse">
      <stop stop-color="#5DE0FF" stop-opacity="0.2"/>
      <stop offset="0.5" stop-color="#00D4AA"/>
      <stop offset="1" stop-color="#39FF14" stop-opacity="0.32"/>
    </linearGradient>
    <linearGradient id="line3" x1="726" y1="472" x2="1444" y2="694" gradientUnits="userSpaceOnUse">
      <stop stop-color="#00D4AA" stop-opacity="0.16"/>
      <stop offset="0.5" stop-color="#5DE0FF"/>
      <stop offset="1" stop-color="#39FF14" stop-opacity="0.28"/>
    </linearGradient>
  </defs>
</svg>
