<svg width="1600" height="840" viewBox="0 0 1600 840" fill="none" xmlns="http://www.w3.org/2000/svg">
  <rect width="1600" height="840" fill="#000000"/>

  <!-- Subtle grid -->
  <g opacity="0.04" stroke="#00d4aa" stroke-width="0.5">
    <line x1="0" y1="140" x2="1600" y2="140"/><line x1="0" y1="280" x2="1600" y2="280"/>
    <line x1="0" y1="420" x2="1600" y2="420"/><line x1="0" y1="560" x2="1600" y2="560"/>
    <line x1="0" y1="700" x2="1600" y2="700"/>
    <line x1="200" y1="0" x2="200" y2="840"/><line x1="400" y1="0" x2="400" y2="840"/>
    <line x1="600" y1="0" x2="600" y2="840"/><line x1="800" y1="0" x2="800" y2="840"/>
    <line x1="1000" y1="0" x2="1000" y2="840"/><line x1="1200" y1="0" x2="1200" y2="840"/>
    <line x1="1400" y1="0" x2="1400" y2="840"/>
  </g>

  <!-- Central glow (matches the scene CentralGlow) -->
  <circle cx="1150" cy="400" r="180" fill="#00d4aa" fill-opacity="0.08"/>
  <circle cx="1150" cy="400" r="100" fill="#00d4aa" fill-opacity="0.06"/>
  <circle cx="1150" cy="400" r="40" fill="#00d4aa" fill-opacity="0.1"/>

  <!-- Neural network connections (dense, bright, #00d4aa at 0.6 alpha like the scene) -->
  <g stroke="#00d4aa" stroke-width="1" opacity="0.5">
    <!-- Core cluster connections -->
    <line x1="1050" y1="340" x2="1150" y2="300"/><line x1="1150" y1="300" x2="1260" y2="320"/>
    <line x1="1260" y1="320" x2="1300" y2="420"/><line x1="1300" y1="420" x2="1240" y2="500"/>
    <line x1="1240" y1="500" x2="1120" y2="510"/><line x1="1120" y1="510" x2="1050" y2="440"/>
    <line x1="1050" y1="440" x2="1050" y2="340"/><line x1="1150" y1="300" x2="1150" y2="400"/>
    <line x1="1150" y1="400" x2="1260" y2="320"/><line x1="1150" y1="400" x2="1300" y2="420"/>
    <line x1="1150" y1="400" x2="1240" y2="500"/><line x1="1150" y1="400" x2="1120" y2="510"/>
    <line x1="1150" y1="400" x2="1050" y2="440"/><line x1="1150" y1="400" x2="1050" y2="340"/>
    <!-- Mid-ring connections -->
    <line x1="920" y1="280" x2="1050" y2="340"/><line x1="920" y1="280" x2="1000" y2="220"/>
    <line x1="1000" y1="220" x2="1150" y2="300"/><line x1="1000" y1="220" x2="1120" y2="180"/>
    <line x1="1120" y1="180" x2="1260" y2="200"/><line x1="1260" y1="200" x2="1260" y2="320"/>
    <line x1="1260" y1="200" x2="1380" y2="260"/><line x1="1380" y1="260" x2="1300" y2="420"/>
    <line x1="1380" y1="260" x2="1420" y2="380"/><line x1="1420" y1="380" x2="1300" y2="420"/>
    <line x1="1420" y1="380" x2="1380" y2="500"/><line x1="1380" y1="500" x2="1240" y2="500"/>
    <line x1="1380" y1="500" x2="1320" y2="580"/><line x1="1320" y1="580" x2="1200" y2="590"/>
    <line x1="1200" y1="590" x2="1120" y2="510"/><line x1="1200" y1="590" x2="1080" y2="580"/>
    <line x1="1080" y1="580" x2="1050" y2="440"/><line x1="1080" y1="580" x2="960" y2="520"/>
    <line x1="960" y1="520" x2="920" y2="420"/><line x1="920" y1="420" x2="920" y2="280"/>
    <line x1="920" y1="420" x2="1050" y2="440"/>
    <!-- Outer ring connections -->
    <line x1="840" y1="200" x2="920" y2="280"/><line x1="840" y1="200" x2="1000" y2="220"/>
    <line x1="1120" y1="180" x2="1150" y2="120"/><line x1="1150" y1="120" x2="1260" y2="200"/>
    <line x1="1260" y1="200" x2="1400" y2="160"/><line x1="1400" y1="160" x2="1380" y2="260"/>
    <line x1="1400" y1="160" x2="1500" y2="240"/><line x1="1500" y1="240" x2="1420" y2="380"/>
    <line x1="1500" y1="240" x2="1520" y2="360"/><line x1="1520" y1="360" x2="1420" y2="380"/>
    <line x1="1520" y1="360" x2="1500" y2="500"/><line x1="1500" y1="500" x2="1380" y2="500"/>
    <line x1="1500" y1="500" x2="1460" y2="600"/><line x1="1460" y1="600" x2="1320" y2="580"/>
    <line x1="1320" y1="580" x2="1260" y2="660"/><line x1="1260" y1="660" x2="1200" y2="590"/>
    <line x1="1260" y1="660" x2="1120" y2="660"/><line x1="1120" y1="660" x2="1080" y2="580"/>
    <line x1="1120" y1="660" x2="980" y2="620"/><line x1="980" y1="620" x2="960" y2="520"/>
    <line x1="980" y1="620" x2="860" y2="560"/><line x1="860" y1="560" x2="920" y2="420"/>
    <line x1="860" y1="560" x2="820" y2="440"/><line x1="820" y1="440" x2="840" y2="320"/>
    <line x1="840" y1="320" x2="920" y2="280"/><line x1="840" y1="320" x2="840" y2="200"/>
    <!-- Cross connections for density -->
    <line x1="1000" y1="220" x2="1260" y2="320"/><line x1="1120" y1="180" x2="1300" y2="420"/>
    <line x1="920" y1="280" x2="1150" y2="400"/><line x1="1380" y1="260" x2="1150" y2="400"/>
    <line x1="960" y1="520" x2="1150" y2="400"/><line x1="1380" y1="500" x2="1150" y2="400"/>
    <line x1="840" y1="200" x2="1120" y2="180"/><line x1="1400" y1="160" x2="1500" y2="240"/>
    <line x1="1460" y1="600" x2="1500" y2="500"/><line x1="980" y1="620" x2="1080" y2="580"/>
    <line x1="860" y1="560" x2="960" y2="520"/><line x1="820" y1="440" x2="920" y2="420"/>
  </g>

  <!-- Fainter outer connections -->
  <g stroke="#00d4aa" stroke-width="0.5" opacity="0.2">
    <line x1="760" y1="140" x2="840" y2="200"/><line x1="760" y1="140" x2="900" y2="160"/>
    <line x1="900" y1="160" x2="1000" y2="220"/><line x1="1150" y1="120" x2="1200" y2="60"/>
    <line x1="1200" y1="60" x2="1340" y2="80"/><line x1="1340" y1="80" x2="1400" y2="160"/>
    <line x1="1540" y1="180" x2="1500" y2="240"/><line x1="1540" y1="180" x2="1520" y2="360"/>
    <line x1="1540" y1="540" x2="1500" y2="500"/><line x1="1540" y1="540" x2="1460" y2="600"/>
    <line x1="1320" y1="720" x2="1260" y2="660"/><line x1="1320" y1="720" x2="1120" y2="660"/>
    <line x1="900" y1="700" x2="980" y2="620"/><line x1="900" y1="700" x2="860" y2="560"/>
    <line x1="760" y1="500" x2="820" y2="440"/><line x1="760" y1="500" x2="860" y2="560"/>
    <line x1="760" y1="140" x2="840" y2="320"/><line x1="1540" y1="180" x2="1400" y2="160"/>
    <line x1="1540" y1="540" x2="1380" y2="500"/><line x1="900" y1="700" x2="1120" y2="660"/>
  </g>

  <!-- Neural network nodes — bright particles -->
  <!-- Core nodes (largest, brightest) -->
  <g fill="#00d4aa">
    <circle cx="1150" cy="400" r="7"/>
    <circle cx="1150" cy="300" r="5.5"/><circle cx="1260" cy="320" r="5"/>
    <circle cx="1300" cy="420" r="5"/><circle cx="1240" cy="500" r="5"/>
    <circle cx="1120" cy="510" r="5.5"/><circle cx="1050" cy="440" r="5"/>
    <circle cx="1050" cy="340" r="5"/>
  </g>
  <!-- Mid-ring nodes -->
  <g fill="#00d4aa" opacity="0.8">
    <circle cx="920" cy="280" r="4"/><circle cx="1000" cy="220" r="4"/>
    <circle cx="1120" cy="180" r="4.5"/><circle cx="1260" cy="200" r="4"/>
    <circle cx="1380" cy="260" r="4"/><circle cx="1420" cy="380" r="4"/>
    <circle cx="1380" cy="500" r="4"/><circle cx="1320" cy="580" r="4"/>
    <circle cx="1200" cy="590" r="4"/><circle cx="1080" cy="580" r="4"/>
    <circle cx="960" cy="520" r="4"/><circle cx="920" cy="420" r="4"/>
  </g>
  <!-- Outer nodes (smaller, dimmer) -->
  <g fill="#00d4aa" opacity="0.5">
    <circle cx="840" cy="200" r="3"/><circle cx="1150" cy="120" r="3"/>
    <circle cx="1400" cy="160" r="3"/><circle cx="1500" cy="240" r="3"/>
    <circle cx="1520" cy="360" r="3"/><circle cx="1500" cy="500" r="3"/>
    <circle cx="1460" cy="600" r="3"/><circle cx="1260" cy="660" r="3"/>
    <circle cx="1120" cy="660" r="3"/><circle cx="980" cy="620" r="3"/>
    <circle cx="860" cy="560" r="3"/><circle cx="820" cy="440" r="3"/>
    <circle cx="840" cy="320" r="3"/>
  </g>
  <!-- Outermost nodes (smallest, faintest) -->
  <g fill="#00d4aa" opacity="0.3">
    <circle cx="760" cy="140" r="2"/><circle cx="900" cy="160" r="2"/>
    <circle cx="1200" cy="60" r="2"/><circle cx="1340" cy="80" r="2"/>
    <circle cx="1540" cy="180" r="2"/><circle cx="1540" cy="540" r="2"/>
    <circle cx="1320" cy="720" r="2"/><circle cx="900" cy="700" r="2"/>
    <circle cx="760" cy="500" r="2"/>
  </g>

  <!-- Accent line -->
  <rect x="80" y="395" width="600" height="2" fill="#00d4aa" opacity="0.5" rx="1"/>

  <!-- Title -->
  <text x="80" y="310" fill="#e8e8f0" font-family="system-ui, -apple-system, sans-serif" font-size="82" font-weight="800" letter-spacing="-2">
    AI Market Cap
  </text>

  <!-- Subtitle -->
  <text x="80" y="370" fill="#00d4aa" font-family="system-ui, sans-serif" font-size="32" font-weight="500" letter-spacing="0.5">
    The Public Market Graph for AI Models
  </text>

  <!-- Description -->
  <text fill="#8888a8" font-family="system-ui, sans-serif" font-size="20" font-weight="400">
    <tspan x="80" dy="456">Track rankings, benchmarks, pricing, launches, provider</tspan>
    <tspan x="80" dy="30">momentum, and agent-native commerce — all in one place.</tspan>
  </text>

  <!-- CTA badges -->
  <g transform="translate(80, 540)">
    <rect width="180" height="48" rx="24" fill="#0a0a0a" stroke="#00d4aa" stroke-width="1.5"/>
    <circle cx="24" cy="24" r="5" fill="#00d4aa"/>
    <text x="42" y="30" fill="#00d4aa" font-family="system-ui, sans-serif" font-size="16" font-weight="600">aimarketcap.tech</text>

    <rect x="200" y="0" width="160" height="48" rx="24" fill="#0a0a0a" stroke="#00d4aa" stroke-width="1" stroke-opacity="0.3"/>
    <text x="232" y="30" fill="#00d4aa" font-family="system-ui, sans-serif" font-size="16" font-weight="600">Open Source</text>

    <rect x="380" y="0" width="160" height="48" rx="24" fill="#0a0a0a" stroke="#ffffff" stroke-width="1" stroke-opacity="0.08"/>
    <text x="410" y="30" fill="#8888a8" font-family="system-ui, sans-serif" font-size="16" font-weight="500">Apache 2.0</text>
  </g>

  <!-- Tech stack -->
  <g transform="translate(80, 628)" font-family="monospace" font-size="13" fill="#8888a8">
    <text>Next.js</text>
    <text x="72" fill="#ffffff" fill-opacity="0.08">|</text>
    <text x="88">React 19</text>
    <text x="164" fill="#ffffff" fill-opacity="0.08">|</text>
    <text x="180">Supabase</text>
    <text x="260" fill="#ffffff" fill-opacity="0.08">|</text>
    <text x="276">TypeScript</text>
    <text x="368" fill="#ffffff" fill-opacity="0.08">|</text>
    <text x="384">Three.js</text>
    <text x="456" fill="#ffffff" fill-opacity="0.08">|</text>
    <text x="472">Solana</text>
  </g>

  <!-- Bottom tagline -->
  <text x="80" y="760" fill="#8888a8" font-family="system-ui, sans-serif" font-size="14" font-weight="400" letter-spacing="3" opacity="0.6">
    RANKINGS  ·  BENCHMARKS  ·  PRICING  ·  LAUNCHES  ·  MARKETPLACE  ·  GOVERNANCE
  </text>

  <!-- Border -->
  <rect x="1" y="1" width="1598" height="838" rx="12" stroke="#ffffff" stroke-opacity="0.08" stroke-width="1" fill="none"/>
</svg>